#N canvas 953 0 958 988 12;
#X obj 27 678 sel 0 1 2 3;
#X obj 29 596 receive d;
#X floatatom 28 624 5 0 0 0 - - -;
#X floatatom 12 80 5 0 0 0 - - -;
#X obj 30 103 mtof;
#X obj 32 179 osc~;
#X obj 42 293 dac~;
#X obj 33 232 *~;
#X obj 27 651 % 4;
#X obj 31 51 receive melody;
#X obj 290 55 receive beat;
#X floatatom 290 81 5 0 0 0 - - -;
#X obj 290 106 % 8;
#X obj 290 132 sel 0 1 2 3 4 5 6 7;
#X obj 816 311 bng 15 250 50 0 empty empty empty 17 7 0 10 -262144
-1 -1;
#X obj 751 398 *~;
#X obj 749 507 dac~;
#X obj 704 314 osc~ 50;
#X text 715 288 kick;
#X obj 842 376 line~;
#X obj 767 359 lop~ 500;
#X obj 436 299 bng 15 250 50 0 empty empty empty 17 7 0 10 -262144
-1 -1;
#X obj 390 399 *~;
#X obj 390 502 dac~;
#X text 540 378 Envelope;
#X obj 390 322 noise~;
#X obj 494 377 line~;
#X obj 390 370 lop~ 500;
#X obj 390 348 bp~ 1500;
#X text 388 295 snare;
#X obj 702 359 bp~ 700;
#X obj 85 1072 *~;
#X obj 95 991 osc~;
#X obj 96 911 mtof;
#X obj 659 840 % 2;
#X floatatom 659 866 5 0 0 0 - - -;
#X obj 659 891 sel 0 1;
#X obj 203 1081 *~;
#X obj 203 990 osc~;
#X obj 184 915 mtof;
#X obj 350 1083 *~;
#X obj 309 990 osc~;
#X obj 288 911 mtof;
#X obj 452 1080 *~;
#X obj 416 987 osc~;
#X obj 418 910 mtof;
#X obj 511 970 line~;
#X obj 606 971 line~;
#X obj 659 795 receive vol;
#X obj 750 446 *~ 1;
#X msg 511 944 0.1 \, 0.2 250;
#X msg 606 945 0.2 \, 0.1 250;
#X obj 675 1022 noise~;
#X obj 675 1048 *~;
#X obj 886 968 line~;
#X obj 743 970 line~;
#X obj 89 1334 dac~;
#X obj 192 1332 dac~;
#X obj 302 1323 dac~;
#X obj 441 1324 dac~;
#X msg 743 944 0.001 \, 0.003 250;
#X msg 886 942 0.003 \, 0.001 250;
#X obj 389 447 *~ 1;
#X obj 908 296 bng 15 250 50 0 empty empty empty 17 7 0 10 -262144
-1 -1;
#X obj 939 367 line~;
#X msg 938 345 0.6 \, 0 200;
#X msg 841 354 1 \, 0 300;
#X msg 494 354 1 \, 0 200;
#X obj 91 1185 *~ 0.4;
#X obj 199 1184 *~ 0.4;
#X obj 325 1181 *~ 0.4;
#X obj 443 1180 *~ 0.4;
#X msg 84 123 0.12;
#X obj 25 143 -;
#X obj 133 672 random -0.6 0.6;
#X obj 96 937 +;
#X obj 182 941 +;
#X obj 288 937 +;
#X obj 418 936 +;
#X obj 274 672 random -1.2 1.2;
#X obj 119 81 random -20 20;
#X msg 46 774 59;
#X msg 94 776 62;
#X msg 135 773 66;
#X msg 177 773 69;
#X msg 307 767 61;
#X msg 353 770 64;
#X msg 400 768 68;
#X msg 435 766 71;
#X msg 49 862 66;
#X msg 96 861 69;
#X msg 142 863 73;
#X msg 184 862 76;
#X msg 331 861 66;
#X msg 374 860 69;
#X msg 406 859 73;
#X msg 448 857 76;
#X connect 0 0 81 0;
#X connect 0 0 82 0;
#X connect 0 0 83 0;
#X connect 0 0 84 0;
#X connect 0 1 85 0;
#X connect 0 1 86 0;
#X connect 0 1 87 0;
#X connect 0 1 88 0;
#X connect 0 2 89 0;
#X connect 0 2 90 0;
#X connect 0 2 91 0;
#X connect 0 2 92 0;
#X connect 0 3 93 0;
#X connect 0 3 94 0;
#X connect 0 3 95 0;
#X connect 0 3 96 0;
#X connect 1 0 2 0;
#X connect 1 0 74 0;
#X connect 1 0 79 0;
#X connect 2 0 8 0;
#X connect 3 0 4 0;
#X connect 4 0 73 0;
#X connect 5 0 7 0;
#X connect 7 0 6 0;
#X connect 7 0 6 1;
#X connect 8 0 0 0;
#X connect 9 0 3 0;
#X connect 9 0 72 0;
#X connect 9 0 80 0;
#X connect 10 0 11 0;
#X connect 11 0 12 0;
#X connect 12 0 13 0;
#X connect 13 0 14 0;
#X connect 13 2 21 0;
#X connect 13 3 63 0;
#X connect 13 4 14 0;
#X connect 13 6 21 0;
#X connect 14 0 66 0;
#X connect 15 0 49 0;
#X connect 17 0 20 0;
#X connect 17 0 30 0;
#X connect 19 0 15 1;
#X connect 20 0 15 0;
#X connect 21 0 67 0;
#X connect 22 0 62 0;
#X connect 25 0 28 0;
#X connect 26 0 22 1;
#X connect 27 0 22 0;
#X connect 28 0 27 0;
#X connect 30 0 15 0;
#X connect 31 0 68 0;
#X connect 32 0 31 0;
#X connect 33 0 75 0;
#X connect 34 0 35 0;
#X connect 35 0 36 0;
#X connect 36 0 50 0;
#X connect 36 0 60 0;
#X connect 36 1 51 0;
#X connect 36 1 61 0;
#X connect 37 0 69 0;
#X connect 38 0 37 0;
#X connect 39 0 76 0;
#X connect 40 0 70 0;
#X connect 41 0 40 0;
#X connect 42 0 77 0;
#X connect 43 0 71 0;
#X connect 44 0 43 0;
#X connect 45 0 78 0;
#X connect 46 0 31 1;
#X connect 46 0 37 1;
#X connect 46 0 40 1;
#X connect 46 0 43 1;
#X connect 47 0 43 1;
#X connect 47 0 40 1;
#X connect 47 0 37 1;
#X connect 47 0 31 1;
#X connect 48 0 34 0;
#X connect 49 0 16 0;
#X connect 49 0 16 1;
#X connect 50 0 46 0;
#X connect 51 0 47 0;
#X connect 52 0 53 0;
#X connect 53 0 68 0;
#X connect 53 0 69 0;
#X connect 53 0 70 0;
#X connect 53 0 71 0;
#X connect 54 0 53 1;
#X connect 55 0 53 1;
#X connect 60 0 55 0;
#X connect 61 0 54 0;
#X connect 62 0 23 0;
#X connect 62 0 23 1;
#X connect 63 0 65 0;
#X connect 64 0 15 1;
#X connect 65 0 64 0;
#X connect 66 0 19 0;
#X connect 67 0 26 0;
#X connect 68 0 56 0;
#X connect 68 0 56 1;
#X connect 69 0 57 0;
#X connect 69 0 57 1;
#X connect 70 0 58 0;
#X connect 70 0 58 1;
#X connect 71 0 59 0;
#X connect 71 0 59 1;
#X connect 72 0 7 1;
#X connect 73 0 5 0;
#X connect 74 0 75 1;
#X connect 74 0 77 1;
#X connect 75 0 32 0;
#X connect 76 0 38 0;
#X connect 77 0 41 0;
#X connect 78 0 44 0;
#X connect 79 0 76 1;
#X connect 79 0 78 1;
#X connect 80 0 73 1;
#X connect 81 0 33 0;
#X connect 82 0 39 0;
#X connect 83 0 42 0;
#X connect 84 0 45 0;
#X connect 85 0 33 0;
#X connect 86 0 39 0;
#X connect 87 0 42 0;
#X connect 88 0 45 0;
#X connect 89 0 33 0;
#X connect 90 0 39 0;
#X connect 91 0 42 0;
#X connect 92 0 45 0;
#X connect 93 0 33 0;
#X connect 94 0 39 0;
#X connect 95 0 42 0;
#X connect 96 0 45 0;
