#N canvas -8 -8 1920 997 12;
#X obj 256 114 sel 0 1 2 3;
#X obj 258 32 receive d;
#X floatatom 257 60 5 0 0 0 - - -;
#X floatatom 12 80 5 0 0 0 - - -;
#X obj 30 103 mtof;
#X obj 32 179 osc~;
#X obj 42 293 dac~;
#X obj 33 232 *~;
#X obj 256 87 % 4;
#X obj 31 51 receive melody;
#X obj 314 508 *~;
#X obj 275 449 osc~;
#X obj 325 347 mtof;
#X obj 967 329 % 2;
#X floatatom 967 355 5 0 0 0 - - -;
#X obj 967 380 sel 0 1;
#X obj 432 517 *~;
#X obj 432 426 osc~;
#X obj 413 351 mtof;
#X obj 579 519 *~;
#X obj 538 426 osc~;
#X obj 534 336 mtof;
#X obj 681 516 *~;
#X obj 703 423 osc~;
#X obj 705 346 mtof;
#X obj 819 459 line~;
#X obj 914 460 line~;
#X obj 967 284 receive vol;
#X msg 819 433 0.1 \, 0.2 250;
#X msg 914 434 0.2 \, 0.1 250;
#X obj 983 511 noise~;
#X obj 983 537 *~;
#X obj 1194 457 line~;
#X obj 1051 459 line~;
#X obj 320 662 dac~;
#X obj 423 660 dac~;
#X obj 533 651 dac~;
#X obj 672 652 dac~;
#X msg 1051 433 0.001 \, 0.003 250;
#X msg 1194 431 0.003 \, 0.001 250;
#X msg 84 123 0.12;
#X obj 25 143 -;
#X obj 362 108 random -0.6 0.6;
#X obj 286 390 +;
#X obj 411 377 +;
#X obj 517 373 +;
#X obj 704 372 +;
#X obj 503 108 random -1.2 1.2;
#X obj 119 81 random -20 20;
#X obj 747 425 osc~;
#X obj 586 423 osc~;
#X obj 611 375 - 30;
#X obj 454 458 osc~;
#X obj 312 455 phasor~;
#X obj 337 423 + 10;
#X obj 479 410 - 20;
#X obj 772 377 + 30;
#X obj 320 576 *~ 0.25;
#X obj 428 575 *~ 0.2;
#X obj 554 572 *~ 0.2;
#X obj 672 571 *~ 0.15;
#X msg 276 209 54;
#X msg 323 212 57;
#X msg 364 209 61;
#X msg 406 209 66;
#X msg 536 203 47;
#X msg 582 206 50;
#X msg 629 204 54;
#X msg 664 202 57;
#X msg 278 298 49;
#X msg 325 297 52;
#X msg 371 299 56;
#X msg 413 298 59;
#X msg 560 297 49;
#X msg 603 296 53;
#X msg 635 295 56;
#X msg 677 293 61;
#X connect 0 0 61 0;
#X connect 0 0 62 0;
#X connect 0 0 63 0;
#X connect 0 0 64 0;
#X connect 0 1 65 0;
#X connect 0 1 66 0;
#X connect 0 1 67 0;
#X connect 0 1 68 0;
#X connect 0 2 69 0;
#X connect 0 2 70 0;
#X connect 0 2 71 0;
#X connect 0 2 72 0;
#X connect 0 3 73 0;
#X connect 0 3 74 0;
#X connect 0 3 76 0;
#X connect 0 3 75 0;
#X connect 1 0 2 0;
#X connect 1 0 42 0;
#X connect 1 0 47 0;
#X connect 2 0 8 0;
#X connect 3 0 4 0;
#X connect 4 0 41 0;
#X connect 5 0 7 0;
#X connect 7 0 6 0;
#X connect 7 0 6 1;
#X connect 8 0 0 0;
#X connect 9 0 3 0;
#X connect 9 0 40 0;
#X connect 9 0 48 0;
#X connect 10 0 57 0;
#X connect 11 0 10 0;
#X connect 12 0 43 0;
#X connect 12 0 54 0;
#X connect 13 0 14 0;
#X connect 14 0 15 0;
#X connect 15 0 28 0;
#X connect 15 0 38 0;
#X connect 15 1 29 0;
#X connect 15 1 39 0;
#X connect 16 0 58 0;
#X connect 17 0 16 0;
#X connect 18 0 44 0;
#X connect 18 0 55 0;
#X connect 19 0 59 0;
#X connect 20 0 19 0;
#X connect 21 0 45 0;
#X connect 21 0 51 0;
#X connect 22 0 60 0;
#X connect 23 0 22 0;
#X connect 24 0 46 0;
#X connect 24 0 56 0;
#X connect 25 0 10 1;
#X connect 25 0 16 1;
#X connect 25 0 19 1;
#X connect 25 0 22 1;
#X connect 26 0 22 1;
#X connect 26 0 19 1;
#X connect 26 0 16 1;
#X connect 26 0 10 1;
#X connect 27 0 13 0;
#X connect 28 0 25 0;
#X connect 29 0 26 0;
#X connect 30 0 31 0;
#X connect 31 0 57 0;
#X connect 31 0 58 0;
#X connect 31 0 59 0;
#X connect 31 0 60 0;
#X connect 32 0 31 1;
#X connect 33 0 31 1;
#X connect 38 0 33 0;
#X connect 39 0 32 0;
#X connect 40 0 7 1;
#X connect 41 0 5 0;
#X connect 42 0 43 1;
#X connect 42 0 45 1;
#X connect 43 0 11 0;
#X connect 44 0 17 0;
#X connect 45 0 20 0;
#X connect 46 0 23 0;
#X connect 47 0 44 1;
#X connect 47 0 46 1;
#X connect 48 0 41 1;
#X connect 49 0 22 1;
#X connect 50 0 19 1;
#X connect 51 0 50 1;
#X connect 52 0 16 1;
#X connect 53 0 10 1;
#X connect 54 0 53 1;
#X connect 55 0 52 1;
#X connect 56 0 49 1;
#X connect 57 0 34 0;
#X connect 57 0 34 1;
#X connect 58 0 35 0;
#X connect 58 0 35 1;
#X connect 59 0 36 0;
#X connect 59 0 36 1;
#X connect 60 0 37 0;
#X connect 60 0 37 1;
#X connect 61 0 12 0;
#X connect 62 0 18 0;
#X connect 63 0 21 0;
#X connect 64 0 24 0;
#X connect 65 0 12 0;
#X connect 66 0 18 0;
#X connect 67 0 21 0;
#X connect 68 0 24 0;
#X connect 69 0 12 0;
#X connect 70 0 18 0;
#X connect 71 0 21 0;
#X connect 72 0 24 0;
#X connect 73 0 12 0;
#X connect 74 0 18 0;
#X connect 75 0 21 0;
#X connect 76 0 24 0;
