#N canvas 338 73 1315 902 12;
#X obj 19 142 osc~;
#X obj 34 246 *~;
#X obj 31 300 dac~;
#X obj 19 168 *~ 0.4;
#X obj 35 35 receive setleftarm;
#X obj 334 202 float;
#X obj 401 200 + 1;
#X floatatom 334 259 5 0 0 0 - - -;
#X obj 333 161 bng 15 250 50 0 empty empty empty 17 7 0 10 -262144
-1 -1;
#X obj 334 88 tgl 15 0 empty empty empty 17 7 0 10 -262144 -1 -1 0
1;
#X msg 429 122 0;
#X obj 334 125 metro 400;
#X msg 276 173 0;
#X msg 394 57 1;
#X obj 334 284 sel 3;
#X msg 174 73 66;
#X obj 174 99 mtof;
#X obj 17 487 osc~;
#X obj 78 486 phasor~;
#X obj 22 588 *~;
#X obj 19 642 dac~;
#X obj 17 513 *~ 0.4;
#X obj 322 523 float;
#X obj 389 521 + 1;
#X floatatom 322 580 5 0 0 0 - - -;
#X obj 321 482 bng 15 250 50 0 empty empty empty 17 7 0 10 -262144
-1 -1;
#X obj 322 409 tgl 15 0 empty empty empty 17 7 0 10 -262144 -1 -1 0
1;
#X msg 417 443 0;
#X obj 322 446 metro 400;
#X msg 264 494 0;
#X msg 382 378 1;
#X obj 322 605 sel 3;
#X obj 161 424 mtof;
#X obj 30 359 receive resetleftarm;
#X floatatom 188 191 5 0 0 0 - - -;
#X floatatom 191 491 5 0 0 0 - - -;
#X obj 83 142 phasor~;
#X obj 83 168 *~ 0.1;
#X obj 78 512 *~ 0.1;
#X msg 161 398 59;
#X obj 493 140 osc~;
#X obj 508 244 *~;
#X obj 505 298 dac~;
#X obj 493 166 *~ 0.4;
#X obj 808 200 float;
#X obj 875 198 + 1;
#X floatatom 808 257 5 0 0 0 - - -;
#X obj 807 159 bng 15 250 50 0 empty empty empty 17 7 0 10 -262144
-1 -1;
#X obj 808 86 tgl 15 0 empty empty empty 17 7 0 10 -262144 -1 -1 0
1;
#X msg 903 120 0;
#X obj 808 123 metro 400;
#X msg 750 171 0;
#X msg 868 55 1;
#X obj 808 282 sel 3;
#X obj 648 97 mtof;
#X obj 491 485 osc~;
#X obj 552 484 phasor~;
#X obj 496 586 *~;
#X obj 493 640 dac~;
#X obj 491 511 *~ 0.4;
#X obj 796 521 float;
#X obj 863 519 + 1;
#X floatatom 796 578 5 0 0 0 - - -;
#X obj 795 480 bng 15 250 50 0 empty empty empty 17 7 0 10 -262144
-1 -1;
#X obj 796 407 tgl 15 0 empty empty empty 17 7 0 10 -262144 -1 -1 0
1;
#X msg 891 441 0;
#X obj 796 444 metro 400;
#X msg 738 492 0;
#X msg 856 376 1;
#X obj 796 603 sel 3;
#X obj 635 422 mtof;
#X floatatom 662 189 5 0 0 0 - - -;
#X floatatom 665 489 5 0 0 0 - - -;
#X obj 557 140 phasor~;
#X obj 557 166 *~ 0.1;
#X obj 552 510 *~ 0.1;
#X obj 509 33 receive setrightarm;
#X obj 504 357 receive resetrightarm;
#X msg 648 71 64;
#X msg 635 396 57;
#X obj 1 831 osc~;
#X obj 16 935 *~;
#X obj 13 989 dac~;
#X obj 307 897 float;
#X obj 374 895 + 1;
#X floatatom 307 954 5 0 0 0 - - -;
#X obj 306 856 bng 15 250 50 0 empty empty empty 17 7 0 10 -262144
-1 -1;
#X obj 307 783 tgl 15 0 empty empty empty 17 7 0 10 -262144 -1 -1 0
1;
#X msg 402 817 0;
#X obj 307 820 metro 400;
#X msg 249 868 0;
#X msg 367 752 1;
#X obj 307 979 sel 3;
#X obj 21 785 mtof;
#X floatatom 161 886 5 0 0 0 - - -;
#X obj 52 831 phasor~;
#X obj 19 716 receive sethurray;
#X obj 116 830 osc~;
#X obj 136 784 mtof;
#X obj 167 830 phasor~;
#X obj 1 857 *~ 0.2;
#X obj 116 856 *~ 0.2;
#X obj 52 857 *~ 0.05;
#X obj 167 856 *~ 0.05;
#X msg 21 759 62;
#X msg 136 758 59;
#X obj 484 829 osc~;
#X obj 499 933 *~;
#X obj 496 987 dac~;
#X obj 790 895 float;
#X obj 857 893 + 1;
#X floatatom 790 952 5 0 0 0 - - -;
#X obj 789 854 bng 15 250 50 0 empty empty empty 17 7 0 10 -262144
-1 -1;
#X obj 744 772 tgl 15 0 empty empty empty 17 7 0 10 -262144 -1 -1 0
1;
#X msg 885 815 0;
#X obj 790 818 metro 400;
#X msg 732 866 0;
#X msg 850 750 1;
#X obj 790 977 sel 3;
#X obj 504 783 mtof;
#X floatatom 644 884 5 0 0 0 - - -;
#X obj 535 829 phasor~;
#X obj 599 828 osc~;
#X obj 619 782 mtof;
#X obj 650 828 phasor~;
#X obj 484 855 *~ 0.2;
#X obj 599 854 *~ 0.2;
#X obj 535 855 *~ 0.05;
#X obj 650 854 *~ 0.05;
#X obj 6 1179 osc~;
#X obj 21 1283 *~;
#X obj 18 1337 dac~;
#X obj 312 1245 float;
#X obj 379 1243 + 1;
#X floatatom 312 1302 5 0 0 0 - - -;
#X obj 311 1204 bng 15 250 50 0 empty empty empty 17 7 0 10 -262144
-1 -1;
#X obj 312 1131 tgl 15 0 empty empty empty 17 7 0 10 -262144 -1 -1
0 1;
#X msg 407 1165 0;
#X obj 312 1168 metro 400;
#X msg 254 1216 0;
#X msg 372 1100 1;
#X obj 312 1327 sel 3;
#X obj 26 1133 mtof;
#X floatatom 166 1234 5 0 0 0 - - -;
#X obj 57 1179 phasor~;
#X obj 121 1178 osc~;
#X obj 141 1132 mtof;
#X obj 172 1178 phasor~;
#X obj 6 1205 *~ 0.2;
#X obj 121 1204 *~ 0.2;
#X obj 57 1205 *~ 0.05;
#X obj 172 1204 *~ 0.05;
#X obj 489 1177 osc~;
#X obj 504 1281 *~;
#X obj 501 1335 dac~;
#X obj 795 1243 float;
#X obj 862 1241 + 1;
#X floatatom 795 1300 5 0 0 0 - - -;
#X obj 794 1202 bng 15 250 50 0 empty empty empty 17 7 0 10 -262144
-1 -1;
#X obj 795 1129 tgl 15 0 empty empty empty 17 7 0 10 -262144 -1 -1
0 1;
#X msg 890 1163 0;
#X obj 795 1166 metro 400;
#X msg 737 1214 0;
#X msg 855 1098 1;
#X obj 795 1325 sel 3;
#X obj 509 1131 mtof;
#X floatatom 649 1232 5 0 0 0 - - -;
#X obj 540 1177 phasor~;
#X obj 604 1176 osc~;
#X obj 624 1130 mtof;
#X obj 655 1176 phasor~;
#X obj 489 1203 *~ 0.2;
#X obj 604 1202 *~ 0.2;
#X obj 540 1203 *~ 0.05;
#X obj 655 1202 *~ 0.05;
#X obj 24 1064 receive resethurray;
#X obj 502 714 receive setclap;
#X obj 507 1062 receive resetclap;
#X msg 26 1107 56;
#X msg 141 1106 53;
#X msg 504 757 57;
#X msg 619 756 61;
#X msg 509 1105 54;
#X msg 624 1104 49;
#X obj 12 1508 osc~;
#X obj 27 1612 *~;
#X obj 24 1666 dac~;
#X obj 298 1579 float;
#X obj 365 1577 + 1;
#X floatatom 298 1636 5 0 0 0 - - -;
#X obj 297 1538 bng 15 250 50 0 empty empty empty 17 7 0 10 -262144
-1 -1;
#X obj 298 1465 tgl 15 0 empty empty empty 17 7 0 10 -262144 -1 -1
0 1;
#X msg 382 1502 0;
#X obj 298 1502 metro 400;
#X msg 251 1550 0;
#X msg 358 1434 1;
#X obj 298 1661 sel 3;
#X obj 32 1462 mtof;
#X floatatom 172 1563 5 0 0 0 - - -;
#X obj 63 1508 phasor~;
#X obj 127 1507 osc~;
#X obj 147 1461 mtof;
#X obj 178 1507 phasor~;
#X obj 12 1534 *~ 0.2;
#X obj 127 1533 *~ 0.2;
#X obj 63 1534 *~ 0.05;
#X obj 178 1533 *~ 0.05;
#X obj 19 1837 osc~;
#X obj 34 1941 *~;
#X obj 31 1995 dac~;
#X obj 299 1904 float;
#X obj 366 1902 + 1;
#X floatatom 299 1961 5 0 0 0 - - -;
#X obj 298 1863 bng 15 250 50 0 empty empty empty 17 7 0 10 -262144
-1 -1;
#X obj 299 1790 tgl 15 0 empty empty empty 17 7 0 10 -262144 -1 -1
0 1;
#X msg 378 1830 0;
#X obj 299 1827 metro 400;
#X msg 255 1875 0;
#X msg 359 1759 1;
#X obj 299 1986 sel 3;
#X obj 39 1791 mtof;
#X floatatom 179 1892 5 0 0 0 - - -;
#X obj 70 1837 phasor~;
#X obj 134 1836 osc~;
#X obj 154 1790 mtof;
#X obj 185 1836 phasor~;
#X obj 19 1863 *~ 0.2;
#X obj 134 1862 *~ 0.2;
#X obj 70 1863 *~ 0.05;
#X obj 185 1862 *~ 0.05;
#X obj 30 1393 receive setlegs;
#X obj 38 1723 receive resetlegs;
#X obj 475 1506 osc~;
#X obj 490 1610 *~;
#X obj 487 1664 dac~;
#X obj 475 1532 *~ 0.4;
#X obj 790 1566 float;
#X obj 857 1564 + 1;
#X floatatom 790 1623 5 0 0 0 - - -;
#X obj 789 1525 bng 15 250 50 0 empty empty empty 17 7 0 10 -262144
-1 -1;
#X obj 790 1452 tgl 15 0 empty empty empty 17 7 0 10 -262144 -1 -1
0 1;
#X msg 885 1486 0;
#X obj 790 1489 metro 400;
#X msg 732 1537 0;
#X msg 850 1421 1;
#X obj 790 1648 sel 3;
#X obj 630 1463 mtof;
#X obj 485 1841 osc~;
#X obj 546 1840 phasor~;
#X obj 490 1942 *~;
#X obj 487 1996 dac~;
#X obj 485 1867 *~ 0.4;
#X obj 795 1910 float;
#X obj 862 1908 + 1;
#X floatatom 795 1967 5 0 0 0 - - -;
#X obj 794 1869 bng 15 250 50 0 empty empty empty 17 7 0 10 -262144
-1 -1;
#X obj 795 1796 tgl 15 0 empty empty empty 17 7 0 10 -262144 -1 -1
0 1;
#X msg 890 1830 0;
#X obj 795 1833 metro 400;
#X msg 737 1881 0;
#X msg 855 1765 1;
#X obj 795 1992 sel 3;
#X obj 629 1778 mtof;
#X floatatom 644 1555 5 0 0 0 - - -;
#X floatatom 651 1866 5 0 0 0 - - -;
#X obj 539 1506 phasor~;
#X obj 539 1532 *~ 0.1;
#X obj 546 1866 *~ 0.1;
#X obj 491 1399 receive setleftleg;
#X obj 498 1713 receive resetleftleg;
#X msg 630 1437 42;
#X msg 629 1752 35;
#X obj 992 1510 osc~;
#X obj 1007 1614 *~;
#X obj 1004 1668 dac~;
#X obj 992 1536 *~ 0.4;
#X obj 1307 1570 float;
#X obj 1374 1568 + 1;
#X floatatom 1307 1627 5 0 0 0 - - -;
#X obj 1306 1529 bng 15 250 50 0 empty empty empty 17 7 0 10 -262144
-1 -1;
#X obj 1307 1456 tgl 15 0 empty empty empty 17 7 0 10 -262144 -1 -1
0 1;
#X msg 1402 1490 0;
#X obj 1307 1493 metro 400;
#X msg 1249 1541 0;
#X msg 1367 1425 1;
#X obj 1307 1652 sel 3;
#X obj 1147 1467 mtof;
#X obj 994 1839 osc~;
#X obj 1055 1838 phasor~;
#X obj 999 1940 *~;
#X obj 996 1994 dac~;
#X obj 994 1865 *~ 0.4;
#X obj 1304 1908 float;
#X obj 1371 1906 + 1;
#X floatatom 1304 1965 5 0 0 0 - - -;
#X obj 1303 1867 bng 15 250 50 0 empty empty empty 17 7 0 10 -262144
-1 -1;
#X obj 1304 1794 tgl 15 0 empty empty empty 17 7 0 10 -262144 -1 -1
0 1;
#X msg 1399 1828 0;
#X obj 1304 1831 metro 400;
#X msg 1246 1879 0;
#X msg 1364 1763 1;
#X obj 1304 1990 sel 3;
#X obj 1138 1776 mtof;
#X floatatom 1161 1559 5 0 0 0 - - -;
#X floatatom 1160 1864 5 0 0 0 - - -;
#X obj 1056 1510 phasor~;
#X obj 1056 1536 *~ 0.1;
#X obj 1055 1864 *~ 0.1;
#X msg 1147 1441 40;
#X msg 1138 1750 33;
#X obj 1008 1403 receive setrightleg;
#X obj 1007 1711 receive resetrightleg;
#X msg 32 1436 38;
#X msg 147 1435 42;
#X msg 39 1765 37;
#X msg 154 1764 41;
#X obj 645 995 send snare;
#X obj 645 937 sel 0;
#X obj 645 969 bng 15 250 50 0 empty empty empty 17 7 0 10 -262144
-1 -1;
#X obj 1152 1925 sel 0;
#X obj 1152 1957 bng 15 250 50 0 empty empty empty 17 7 0 10 -262144
-1 -1;
#X obj 1152 1983 send kick;
#X obj 645 1921 sel 0;
#X obj 645 1953 bng 15 250 50 0 empty empty empty 17 7 0 10 -262144
-1 -1;
#X obj 645 1979 send kick;
#X connect 0 0 3 0;
#X connect 1 0 2 0;
#X connect 1 0 2 1;
#X connect 3 0 1 0;
#X connect 4 0 13 0;
#X connect 4 0 15 0;
#X connect 5 0 6 0;
#X connect 5 0 7 0;
#X connect 6 0 5 1;
#X connect 7 0 14 0;
#X connect 8 0 5 0;
#X connect 9 0 11 0;
#X connect 9 0 34 0;
#X connect 10 0 5 0;
#X connect 11 0 8 0;
#X connect 12 0 9 0;
#X connect 13 0 10 0;
#X connect 13 0 9 0;
#X connect 14 0 12 0;
#X connect 15 0 16 0;
#X connect 16 0 0 0;
#X connect 16 0 36 0;
#X connect 17 0 21 0;
#X connect 18 0 38 0;
#X connect 19 0 20 0;
#X connect 19 0 20 1;
#X connect 21 0 19 0;
#X connect 22 0 23 0;
#X connect 22 0 24 0;
#X connect 23 0 22 1;
#X connect 24 0 31 0;
#X connect 25 0 22 0;
#X connect 26 0 28 0;
#X connect 26 0 35 0;
#X connect 27 0 22 0;
#X connect 28 0 25 0;
#X connect 29 0 26 0;
#X connect 30 0 27 0;
#X connect 30 0 26 0;
#X connect 31 0 29 0;
#X connect 32 0 17 0;
#X connect 32 0 18 0;
#X connect 33 0 30 0;
#X connect 33 0 39 0;
#X connect 34 0 1 1;
#X connect 35 0 19 1;
#X connect 36 0 37 0;
#X connect 37 0 1 0;
#X connect 38 0 19 0;
#X connect 39 0 32 0;
#X connect 40 0 43 0;
#X connect 41 0 42 0;
#X connect 41 0 42 1;
#X connect 43 0 41 0;
#X connect 44 0 45 0;
#X connect 44 0 46 0;
#X connect 45 0 44 1;
#X connect 46 0 53 0;
#X connect 47 0 44 0;
#X connect 48 0 50 0;
#X connect 48 0 71 0;
#X connect 49 0 44 0;
#X connect 50 0 47 0;
#X connect 51 0 48 0;
#X connect 52 0 49 0;
#X connect 52 0 48 0;
#X connect 53 0 51 0;
#X connect 54 0 40 0;
#X connect 54 0 73 0;
#X connect 55 0 59 0;
#X connect 56 0 75 0;
#X connect 57 0 58 0;
#X connect 57 0 58 1;
#X connect 59 0 57 0;
#X connect 60 0 61 0;
#X connect 60 0 62 0;
#X connect 61 0 60 1;
#X connect 62 0 69 0;
#X connect 63 0 60 0;
#X connect 64 0 66 0;
#X connect 64 0 72 0;
#X connect 65 0 60 0;
#X connect 66 0 63 0;
#X connect 67 0 64 0;
#X connect 68 0 65 0;
#X connect 68 0 64 0;
#X connect 69 0 67 0;
#X connect 70 0 55 0;
#X connect 70 0 56 0;
#X connect 71 0 41 1;
#X connect 72 0 57 1;
#X connect 73 0 74 0;
#X connect 74 0 41 0;
#X connect 75 0 57 0;
#X connect 76 0 52 0;
#X connect 76 0 78 0;
#X connect 77 0 68 0;
#X connect 77 0 79 0;
#X connect 78 0 54 0;
#X connect 79 0 70 0;
#X connect 80 0 100 0;
#X connect 81 0 82 0;
#X connect 81 0 82 1;
#X connect 83 0 84 0;
#X connect 83 0 85 0;
#X connect 84 0 83 1;
#X connect 85 0 92 0;
#X connect 86 0 83 0;
#X connect 87 0 89 0;
#X connect 87 0 94 0;
#X connect 88 0 83 0;
#X connect 89 0 86 0;
#X connect 90 0 87 0;
#X connect 91 0 88 0;
#X connect 91 0 87 0;
#X connect 92 0 90 0;
#X connect 93 0 80 0;
#X connect 93 0 95 0;
#X connect 94 0 81 1;
#X connect 95 0 102 0;
#X connect 96 0 91 0;
#X connect 96 0 104 0;
#X connect 96 0 105 0;
#X connect 97 0 101 0;
#X connect 98 0 97 0;
#X connect 98 0 99 0;
#X connect 99 0 103 0;
#X connect 100 0 81 0;
#X connect 101 0 81 0;
#X connect 102 0 81 0;
#X connect 103 0 81 0;
#X connect 104 0 93 0;
#X connect 105 0 98 0;
#X connect 106 0 125 0;
#X connect 107 0 108 0;
#X connect 107 0 108 1;
#X connect 109 0 110 0;
#X connect 109 0 111 0;
#X connect 110 0 109 1;
#X connect 111 0 118 0;
#X connect 112 0 109 0;
#X connect 113 0 115 0;
#X connect 113 0 120 0;
#X connect 114 0 109 0;
#X connect 115 0 112 0;
#X connect 116 0 113 0;
#X connect 117 0 114 0;
#X connect 117 0 113 0;
#X connect 118 0 116 0;
#X connect 119 0 106 0;
#X connect 119 0 121 0;
#X connect 120 0 107 1;
#X connect 120 0 317 0;
#X connect 121 0 127 0;
#X connect 122 0 126 0;
#X connect 123 0 122 0;
#X connect 123 0 124 0;
#X connect 124 0 128 0;
#X connect 125 0 107 0;
#X connect 126 0 107 0;
#X connect 127 0 107 0;
#X connect 128 0 107 0;
#X connect 129 0 148 0;
#X connect 130 0 131 0;
#X connect 130 0 131 1;
#X connect 132 0 133 0;
#X connect 132 0 134 0;
#X connect 133 0 132 1;
#X connect 134 0 141 0;
#X connect 135 0 132 0;
#X connect 136 0 138 0;
#X connect 136 0 143 0;
#X connect 137 0 132 0;
#X connect 138 0 135 0;
#X connect 139 0 136 0;
#X connect 140 0 137 0;
#X connect 140 0 136 0;
#X connect 141 0 139 0;
#X connect 142 0 129 0;
#X connect 142 0 144 0;
#X connect 143 0 130 1;
#X connect 144 0 150 0;
#X connect 145 0 149 0;
#X connect 146 0 145 0;
#X connect 146 0 147 0;
#X connect 147 0 151 0;
#X connect 148 0 130 0;
#X connect 149 0 130 0;
#X connect 150 0 130 0;
#X connect 151 0 130 0;
#X connect 152 0 171 0;
#X connect 153 0 154 0;
#X connect 153 0 154 1;
#X connect 155 0 156 0;
#X connect 155 0 157 0;
#X connect 156 0 155 1;
#X connect 157 0 164 0;
#X connect 158 0 155 0;
#X connect 159 0 161 0;
#X connect 159 0 166 0;
#X connect 160 0 155 0;
#X connect 161 0 158 0;
#X connect 162 0 159 0;
#X connect 163 0 160 0;
#X connect 163 0 159 0;
#X connect 164 0 162 0;
#X connect 165 0 152 0;
#X connect 165 0 167 0;
#X connect 166 0 153 1;
#X connect 167 0 173 0;
#X connect 168 0 172 0;
#X connect 169 0 168 0;
#X connect 169 0 170 0;
#X connect 170 0 174 0;
#X connect 171 0 153 0;
#X connect 172 0 153 0;
#X connect 173 0 153 0;
#X connect 174 0 153 0;
#X connect 175 0 140 0;
#X connect 175 0 178 0;
#X connect 175 0 179 0;
#X connect 176 0 117 0;
#X connect 176 0 180 0;
#X connect 176 0 181 0;
#X connect 177 0 163 0;
#X connect 177 0 182 0;
#X connect 177 0 183 0;
#X connect 178 0 142 0;
#X connect 179 0 146 0;
#X connect 180 0 119 0;
#X connect 181 0 123 0;
#X connect 182 0 165 0;
#X connect 183 0 169 0;
#X connect 184 0 203 0;
#X connect 185 0 186 0;
#X connect 185 0 186 1;
#X connect 187 0 188 0;
#X connect 187 0 189 0;
#X connect 188 0 187 1;
#X connect 189 0 196 0;
#X connect 190 0 187 0;
#X connect 191 0 193 0;
#X connect 191 0 198 0;
#X connect 192 0 187 0;
#X connect 193 0 190 0;
#X connect 194 0 191 0;
#X connect 195 0 192 0;
#X connect 195 0 191 0;
#X connect 196 0 194 0;
#X connect 197 0 184 0;
#X connect 197 0 199 0;
#X connect 198 0 185 1;
#X connect 199 0 205 0;
#X connect 200 0 204 0;
#X connect 201 0 200 0;
#X connect 201 0 202 0;
#X connect 202 0 206 0;
#X connect 203 0 185 0;
#X connect 204 0 185 0;
#X connect 205 0 185 0;
#X connect 206 0 185 0;
#X connect 207 0 226 0;
#X connect 208 0 209 0;
#X connect 208 0 209 1;
#X connect 210 0 211 0;
#X connect 210 0 212 0;
#X connect 211 0 210 1;
#X connect 212 0 219 0;
#X connect 213 0 210 0;
#X connect 214 0 216 0;
#X connect 214 0 221 0;
#X connect 215 0 210 0;
#X connect 216 0 213 0;
#X connect 217 0 214 0;
#X connect 218 0 215 0;
#X connect 218 0 214 0;
#X connect 219 0 217 0;
#X connect 220 0 207 0;
#X connect 220 0 222 0;
#X connect 221 0 208 1;
#X connect 222 0 228 0;
#X connect 223 0 227 0;
#X connect 224 0 223 0;
#X connect 224 0 225 0;
#X connect 225 0 229 0;
#X connect 226 0 208 0;
#X connect 227 0 208 0;
#X connect 228 0 208 0;
#X connect 229 0 208 0;
#X connect 230 0 195 0;
#X connect 230 0 312 0;
#X connect 230 0 313 0;
#X connect 231 0 218 0;
#X connect 231 0 314 0;
#X connect 231 0 315 0;
#X connect 232 0 235 0;
#X connect 233 0 234 0;
#X connect 233 0 234 1;
#X connect 235 0 233 0;
#X connect 236 0 237 0;
#X connect 236 0 238 0;
#X connect 237 0 236 1;
#X connect 238 0 245 0;
#X connect 239 0 236 0;
#X connect 240 0 242 0;
#X connect 240 0 263 0;
#X connect 241 0 236 0;
#X connect 242 0 239 0;
#X connect 243 0 240 0;
#X connect 244 0 241 0;
#X connect 244 0 240 0;
#X connect 245 0 243 0;
#X connect 246 0 232 0;
#X connect 246 0 265 0;
#X connect 247 0 251 0;
#X connect 248 0 267 0;
#X connect 249 0 250 0;
#X connect 249 0 250 1;
#X connect 251 0 249 0;
#X connect 252 0 253 0;
#X connect 252 0 254 0;
#X connect 253 0 252 1;
#X connect 254 0 261 0;
#X connect 255 0 252 0;
#X connect 256 0 258 0;
#X connect 256 0 264 0;
#X connect 257 0 252 0;
#X connect 258 0 255 0;
#X connect 259 0 256 0;
#X connect 260 0 257 0;
#X connect 260 0 256 0;
#X connect 261 0 259 0;
#X connect 262 0 247 0;
#X connect 262 0 248 0;
#X connect 263 0 233 1;
#X connect 264 0 249 1;
#X connect 264 0 322 0;
#X connect 265 0 266 0;
#X connect 266 0 233 0;
#X connect 267 0 249 0;
#X connect 268 0 244 0;
#X connect 268 0 270 0;
#X connect 269 0 260 0;
#X connect 269 0 271 0;
#X connect 270 0 246 0;
#X connect 271 0 262 0;
#X connect 272 0 275 0;
#X connect 273 0 274 0;
#X connect 273 0 274 1;
#X connect 275 0 273 0;
#X connect 276 0 277 0;
#X connect 276 0 278 0;
#X connect 277 0 276 1;
#X connect 278 0 285 0;
#X connect 279 0 276 0;
#X connect 280 0 282 0;
#X connect 280 0 303 0;
#X connect 281 0 276 0;
#X connect 282 0 279 0;
#X connect 283 0 280 0;
#X connect 284 0 281 0;
#X connect 284 0 280 0;
#X connect 285 0 283 0;
#X connect 286 0 272 0;
#X connect 286 0 305 0;
#X connect 287 0 291 0;
#X connect 288 0 307 0;
#X connect 289 0 290 0;
#X connect 289 0 290 1;
#X connect 291 0 289 0;
#X connect 292 0 293 0;
#X connect 292 0 294 0;
#X connect 293 0 292 1;
#X connect 294 0 301 0;
#X connect 295 0 292 0;
#X connect 296 0 298 0;
#X connect 296 0 304 0;
#X connect 297 0 292 0;
#X connect 298 0 295 0;
#X connect 299 0 296 0;
#X connect 300 0 297 0;
#X connect 300 0 296 0;
#X connect 301 0 299 0;
#X connect 302 0 287 0;
#X connect 302 0 288 0;
#X connect 303 0 273 1;
#X connect 304 0 289 1;
#X connect 304 0 319 0;
#X connect 305 0 306 0;
#X connect 306 0 273 0;
#X connect 307 0 289 0;
#X connect 308 0 286 0;
#X connect 309 0 302 0;
#X connect 310 0 284 0;
#X connect 310 0 308 0;
#X connect 311 0 300 0;
#X connect 311 0 309 0;
#X connect 312 0 197 0;
#X connect 313 0 201 0;
#X connect 314 0 220 0;
#X connect 315 0 224 0;
#X connect 317 0 318 0;
#X connect 318 0 316 0;
#X connect 319 0 320 0;
#X connect 320 0 321 0;
#X connect 322 0 323 0;
#X connect 323 0 324 0;
