#N canvas 118 6 1494 943 12;
#X obj 21 602 sel 0 1 2 3;
#X obj 23 520 receive d;
#X floatatom 22 548 5 0 0 0 - - -;
#X msg 40 698 50;
#X msg 88 700 53;
#X msg 129 697 57;
#X msg 171 697 60;
#X msg 301 691 55;
#X msg 347 694 59;
#X msg 394 692 62;
#X msg 429 690 65;
#X msg 43 786 48;
#X msg 90 785 52;
#X msg 136 787 55;
#X msg 178 786 59;
#X msg 325 785 53;
#X msg 368 784 57;
#X msg 400 783 60;
#X msg 442 781 64;
#X floatatom 44 103 5 0 0 0 - - -;
#X obj 44 128 mtof;
#X obj 44 154 osc~;
#X obj 45 209 dac~;
#X obj 44 180 *~;
#X obj 21 575 % 4;
#X obj 45 76 receive melody;
#X obj 290 55 receive beat;
#X floatatom 290 81 5 0 0 0 - - -;
#X obj 290 106 % 8;
#X obj 290 132 sel 0 1 2 3 4 5 6 7;
#X obj 671 253 bng 15 250 50 0 empty empty empty 17 7 0 10 -262144
-1 -1;
#X obj 606 340 *~;
#X obj 605 536 dac~;
#X obj 559 256 osc~ 50;
#X text 593 229 kick;
#X obj 697 318 line~;
#X obj 622 301 lop~ 500;
#X obj 384 243 bng 15 250 50 0 empty empty empty 17 7 0 10 -262144
-1 -1;
#X obj 338 343 *~;
#X obj 339 533 dac~;
#X text 488 322 Envelope;
#X obj 338 266 noise~;
#X obj 442 321 line~;
#X obj 338 314 lop~ 500;
#X obj 338 292 bp~ 1500;
#X text 336 239 snare;
#X msg 98 148 0.03;
#X obj 557 301 bp~ 700;
#X msg 696 296 0.9 \, 0 150;
#X msg 442 299 0.9 \, 0 100;
#X obj 338 478 *~ 0.6;
#X obj 606 475 *~ 0.7;
#X obj 68 1047 *~;
#X obj 58 1189 dac~;
#X obj 89 887 osc~;
#X obj 46 845 mtof;
#X obj 653 764 % 2;
#X floatatom 653 790 5 0 0 0 - - -;
#X obj 653 815 sel 0 1;
#X obj 21 891 noise~;
#X obj 62 1128 *~ 1;
#X msg 799 884 0.5 \, 0.15 50;
#X msg 894 885 0.15 \, 0.5 50;
#X msg 562 886 0.025 \, 0.015 50;
#X msg 679 885 0.015 \, 0.025 50;
#X obj 186 1056 *~;
#X obj 166 1188 dac~;
#X obj 197 886 osc~;
#X obj 154 844 mtof;
#X obj 129 890 noise~;
#X obj 170 1127 *~ 1;
#X obj 333 1058 *~;
#X obj 271 1185 dac~;
#X obj 303 886 osc~;
#X obj 259 841 mtof;
#X obj 234 887 noise~;
#X obj 275 1124 *~ 1;
#X obj 435 1055 *~;
#X obj 379 1182 dac~;
#X obj 410 883 osc~;
#X obj 367 838 mtof;
#X obj 342 884 noise~;
#X obj 383 1121 *~ 1;
#X obj 561 910 line~;
#X obj 679 911 line~;
#X obj 799 910 line~;
#X obj 894 911 line~;
#X obj 17 1046 *~;
#X obj 266 1058 *~;
#X obj 386 1056 *~;
#X obj 125 1051 *~;
#X obj 653 719 receive vol;
#X connect 0 0 3 0;
#X connect 0 0 4 0;
#X connect 0 0 5 0;
#X connect 0 0 6 0;
#X connect 0 1 7 0;
#X connect 0 1 8 0;
#X connect 0 1 9 0;
#X connect 0 1 10 0;
#X connect 0 2 11 0;
#X connect 0 2 12 0;
#X connect 0 2 13 0;
#X connect 0 2 14 0;
#X connect 0 3 15 0;
#X connect 0 3 16 0;
#X connect 0 3 17 0;
#X connect 0 3 18 0;
#X connect 1 0 2 0;
#X connect 2 0 24 0;
#X connect 3 0 55 0;
#X connect 4 0 68 0;
#X connect 5 0 74 0;
#X connect 6 0 80 0;
#X connect 7 0 55 0;
#X connect 8 0 68 0;
#X connect 9 0 74 0;
#X connect 10 0 80 0;
#X connect 11 0 55 0;
#X connect 12 0 68 0;
#X connect 13 0 74 0;
#X connect 14 0 80 0;
#X connect 15 0 55 0;
#X connect 16 0 68 0;
#X connect 17 0 74 0;
#X connect 18 0 80 0;
#X connect 19 0 20 0;
#X connect 20 0 21 0;
#X connect 21 0 23 0;
#X connect 23 0 22 0;
#X connect 23 0 22 1;
#X connect 24 0 0 0;
#X connect 25 0 19 0;
#X connect 25 0 46 0;
#X connect 26 0 27 0;
#X connect 27 0 28 0;
#X connect 28 0 29 0;
#X connect 29 0 30 0;
#X connect 29 2 37 0;
#X connect 29 3 30 0;
#X connect 29 4 30 0;
#X connect 29 6 37 0;
#X connect 30 0 48 0;
#X connect 31 0 51 0;
#X connect 33 0 36 0;
#X connect 33 0 47 0;
#X connect 35 0 31 1;
#X connect 36 0 31 0;
#X connect 37 0 49 0;
#X connect 38 0 50 0;
#X connect 41 0 44 0;
#X connect 42 0 38 1;
#X connect 43 0 38 0;
#X connect 44 0 43 0;
#X connect 46 0 23 1;
#X connect 47 0 31 0;
#X connect 48 0 35 0;
#X connect 49 0 42 0;
#X connect 50 0 39 0;
#X connect 50 0 39 1;
#X connect 51 0 32 0;
#X connect 51 0 32 1;
#X connect 52 0 60 0;
#X connect 54 0 52 0;
#X connect 55 0 54 0;
#X connect 55 0 59 0;
#X connect 56 0 57 0;
#X connect 57 0 58 0;
#X connect 58 0 61 0;
#X connect 58 0 63 0;
#X connect 58 1 62 0;
#X connect 58 1 64 0;
#X connect 59 0 87 0;
#X connect 60 0 53 0;
#X connect 60 0 53 1;
#X connect 61 0 85 0;
#X connect 62 0 86 0;
#X connect 63 0 83 0;
#X connect 64 0 84 0;
#X connect 65 0 70 0;
#X connect 67 0 65 0;
#X connect 68 0 67 0;
#X connect 68 0 69 0;
#X connect 69 0 90 0;
#X connect 70 0 66 0;
#X connect 70 0 66 1;
#X connect 71 0 76 0;
#X connect 73 0 71 0;
#X connect 74 0 73 0;
#X connect 74 0 75 0;
#X connect 75 0 88 0;
#X connect 76 0 72 0;
#X connect 76 0 72 1;
#X connect 77 0 82 0;
#X connect 79 0 77 0;
#X connect 80 0 79 0;
#X connect 80 0 81 0;
#X connect 81 0 89 0;
#X connect 82 0 78 0;
#X connect 82 0 78 1;
#X connect 83 0 87 1;
#X connect 83 0 89 0;
#X connect 83 0 88 1;
#X connect 83 0 90 1;
#X connect 84 0 87 1;
#X connect 84 0 89 0;
#X connect 84 0 88 1;
#X connect 84 0 90 1;
#X connect 85 0 52 1;
#X connect 85 0 65 1;
#X connect 85 0 71 1;
#X connect 85 0 77 1;
#X connect 86 0 77 1;
#X connect 86 0 71 1;
#X connect 86 0 65 1;
#X connect 86 0 52 1;
#X connect 87 0 60 0;
#X connect 88 0 76 0;
#X connect 89 0 82 0;
#X connect 90 0 70 0;
#X connect 91 0 56 0;
